<svg version="1.1" id="Layer_1" xmlns:x="ns_extend;" xmlns:i="ns_ai;" xmlns:graph="ns_graphs;" xmlns="http://www.w3.org/2000/svg" xmlns:xlink="http://www.w3.org/1999/xlink" x="0px" y="0px" viewBox="0 0 388.8 56" style="enable-background:new 0 0 388.8 56;" xml:space="preserve">
 <style type="text/css">
  .st0{fill:#3EAEB2;}
 </style>
 <metadata>
  <sfw xmlns="ns_sfw;">
   <slices>
   </slices>
   <sliceSourceBounds bottomLeftOrigin="true" height="56" width="388.8" x="-198.8" y="0.5">
   </sliceSourceBounds>
  </sfw>
 </metadata>
 <g>
  <path class="st0" d="M101.2,53.4c0-0.2,0-0.5,0.1-0.7l0.1-0.2l1-2.4l0,0l3.2-8L94.8,15.5c-0.1-0.3-0.2-0.7-0.2-1.1
		c0-0.6,0.2-1.2,0.6-1.6c0.4-0.5,0.9-0.8,1.5-0.9c0.6-0.1,1.2,0,1.7,0.3c0.5,0.3,0.9,0.8,1.1,1.3l8.6,21.5l8.6-21.5
		c0.2-0.5,0.5-0.9,0.9-1.2c0.4-0.3,1-0.5,1.5-0.5c0.3,0,0.7,0,1,0.2c0.3,0.1,0.6,0.3,0.9,0.5c0.2,0.2,0.4,0.5,0.6,0.8
		c0.1,0.3,0.2,0.7,0.2,1c0,0.3-0.1,0.6-0.2,0.9l0,0l-9.6,23.8l0,0l-6.1,15.2c-0.2,0.5-0.5,0.9-0.9,1.2c-0.4,0.3-1,0.4-1.5,0.4
		c-0.3,0-0.7-0.1-1-0.2c-0.3-0.1-0.6-0.3-0.8-0.6c-0.2-0.2-0.4-0.5-0.5-0.8C101.2,54.1,101.2,53.8,101.2,53.4z M280.3,52.3
		c-0.5-0.5-0.8-1.1-0.8-1.8c0-0.7,0.3-1.3,0.7-1.8c0.5-0.5,1.1-0.8,1.8-0.8c0.7,0,1.4,0.2,1.9,0.7c1.4,1.3,3.3,1.9,5.3,1.9
		c4.7,0,7.6-3.1,7.6-8.1v-2.8c-2.1,1.1-4.3,1.7-6.7,1.7c-8.5,0-14.4-6.1-14.4-14.8c0-8.7,5.9-14.8,14.4-14.8c2.4,0,4.8,0.6,6.9,1.8
		c0.2-0.4,0.5-0.8,0.9-1.1c0.4-0.3,0.9-0.4,1.4-0.4c0.3,0,0.7,0.1,1,0.2c0.3,0.1,0.6,0.3,0.8,0.6c0.2,0.2,0.4,0.5,0.5,0.9
		c0.1,0.3,0.2,0.7,0.1,1v24.8h0v3.2c0,7.5-5.4,13-12.8,13C285.9,55.7,282.7,54.5,280.3,52.3L280.3,52.3z M281,26.4
		c0,5.9,4,9.9,9.6,9.9c1.2,0,2.3-0.2,3.4-0.6c1.1-0.4,2-1.1,2.8-1.9v-1.2l0,0V19.1c-0.8-0.8-1.8-1.5-2.9-1.9
		c-1.1-0.5-2.2-0.7-3.4-0.7C285,16.4,281,20.5,281,26.4L281,26.4z M220.9,32V17h-2.3c-0.3,0-0.7,0-1-0.1c-0.3-0.1-0.6-0.3-0.9-0.5
		s-0.4-0.5-0.6-0.8c-0.1-0.3-0.2-0.6-0.2-1c0-0.3,0.1-0.7,0.2-1c0.1-0.3,0.3-0.6,0.6-0.8c0.2-0.2,0.5-0.4,0.9-0.5
		c0.3-0.1,0.7-0.2,1-0.1h2.3V4.3c0-0.3,0-0.7,0.2-1c0.1-0.3,0.3-0.6,0.5-0.9c0.2-0.2,0.5-0.4,0.8-0.6c0.3-0.1,0.7-0.2,1-0.2
		s0.7,0.1,1,0.2c0.3,0.1,0.6,0.3,0.8,0.6c0.2,0.2,0.4,0.5,0.5,0.9c0.1,0.3,0.2,0.7,0.2,1v7.9h4.1c0.3,0,0.7,0,1,0.1
		c0.3,0.1,0.6,0.3,0.9,0.5c0.2,0.2,0.4,0.5,0.6,0.8c0.1,0.3,0.2,0.6,0.2,1c0,0.3-0.1,0.7-0.2,1c-0.1,0.3-0.3,0.6-0.6,0.8
		c-0.2,0.2-0.5,0.4-0.9,0.5c-0.3,0.1-0.7,0.2-1,0.1H226v15.1c0,2.8,1.5,4.2,4.2,4.2c0.3,0,0.7,0,1,0.1c0.3,0.1,0.6,0.3,0.9,0.5
		c0.2,0.2,0.4,0.5,0.6,0.8c0.1,0.3,0.2,0.6,0.2,1c0,0.3-0.1,0.7-0.2,1c-0.1,0.3-0.3,0.6-0.6,0.8c-0.2,0.2-0.5,0.4-0.9,0.5
		c-0.3,0.1-0.7,0.2-1,0.1C224.2,41.1,220.9,37.9,220.9,32L220.9,32z M71.7,39.3c-0.2,0.5-0.5,0.9-0.9,1.1c-0.4,0.3-0.9,0.4-1.4,0.4
		c-0.3,0-0.7-0.1-1-0.2c-0.3-0.1-0.6-0.3-0.8-0.6c-0.2-0.2-0.4-0.5-0.5-0.9c-0.1-0.3-0.2-0.7-0.2-1V2.6c0-0.3,0-0.7,0.2-1
		C67,1.3,67.2,1,67.5,0.8c0.2-0.2,0.5-0.4,0.8-0.6C68.6,0.1,69,0,69.3,0c0.3,0,0.7,0.1,1,0.2c0.3,0.1,0.6,0.3,0.8,0.6
		c0.2,0.2,0.4,0.5,0.5,0.9c0.1,0.3,0.2,0.7,0.2,1v10.7c2.1-1.1,4.4-1.7,6.7-1.7c8.5,0,14.4,6.1,14.4,14.8c0,8.7-5.9,14.8-14.4,14.8
		C76.1,41.1,73.8,40.5,71.7,39.3z M71.9,18.9v14.9c1.7,1.6,3.9,2.5,6.2,2.5c5.7,0,9.6-4.1,9.6-9.9c0-5.9-3.9-9.9-9.6-9.9
		C75.8,16.4,73.5,17.3,71.9,18.9L71.9,18.9z M35.1,26.4c0-8.7,5.9-14.8,14.4-14.8c2.4,0,4.8,0.6,6.9,1.8c0.2-0.5,0.5-0.9,0.9-1.1
		c0.4-0.3,0.9-0.4,1.4-0.4c0.3,0,0.7,0.1,1,0.2c0.3,0.1,0.6,0.3,0.9,0.6c0.2,0.2,0.4,0.5,0.5,0.9c0.1,0.3,0.2,0.7,0.1,1v23.7
		c0,0.3,0,0.7-0.1,1c-0.1,0.3-0.3,0.6-0.5,0.9c-0.2,0.2-0.5,0.4-0.9,0.6c-0.3,0.1-0.7,0.2-1,0.2c-0.5,0-1-0.1-1.4-0.4
		c-0.4-0.3-0.7-0.7-0.9-1.1c-2.1,1.2-4.5,1.8-6.9,1.8C41,41.1,35.1,35.1,35.1,26.4z M40.3,26.4c0,5.8,4,9.9,9.6,9.9
		c2.3,0,4.6-0.9,6.2-2.5V18.9c-1.7-1.6-3.9-2.5-6.2-2.5C44.2,16.4,40.3,20.5,40.3,26.4z M248.5,38.2V14.7c0-0.3,0-0.7,0.1-1
		c0.1-0.3,0.3-0.6,0.5-0.9c0.2-0.2,0.5-0.4,0.8-0.6c0.3-0.1,0.7-0.2,1-0.2c0.5,0,0.9,0.1,1.3,0.3c0.4,0.2,0.7,0.6,0.9,1
		c2-1.2,4.3-1.8,6.7-1.7c0,0,0.1,0,0.1,0h0.1c0,0,0,0,0.1,0c7.2,0,11.5,4.3,11.5,11.5v15.1c0,0.3,0,0.7-0.1,1
		c-0.1,0.3-0.3,0.6-0.5,0.9c-0.2,0.2-0.5,0.4-0.8,0.6c-0.3,0.1-0.7,0.2-1,0.2c-0.3,0-0.7-0.1-1-0.2c-0.3-0.1-0.6-0.3-0.8-0.6
		c-0.2-0.2-0.4-0.5-0.5-0.9c-0.1-0.3-0.2-0.7-0.2-1V24c0-4.9-2.2-7.5-6.5-7.6c-4.3,0.1-6.5,2.7-6.5,7.6v14.2c0,0.3,0,0.7-0.2,1
		c-0.1,0.3-0.3,0.6-0.5,0.9c-0.2,0.2-0.5,0.4-0.8,0.6c-0.3,0.1-0.7,0.2-1,0.2c-0.3,0-0.7-0.1-1-0.2c-0.3-0.1-0.6-0.3-0.8-0.6
		c-0.2-0.2-0.4-0.5-0.5-0.9C248.6,38.9,248.5,38.6,248.5,38.2L248.5,38.2z M237.9,38.2V14.5c0-0.3,0-0.7,0.2-1
		c0.1-0.3,0.3-0.6,0.5-0.9c0.2-0.2,0.5-0.4,0.8-0.6c0.3-0.1,0.7-0.2,1-0.2c0.3,0,0.7,0.1,1,0.2c0.3,0.1,0.6,0.3,0.8,0.6
		c0.2,0.2,0.4,0.5,0.5,0.9c0.1,0.3,0.2,0.7,0.2,1v23.7c0,0.3,0,0.7-0.1,1c-0.1,0.3-0.3,0.6-0.5,0.9c-0.2,0.2-0.5,0.4-0.8,0.6
		s-0.7,0.2-1,0.2c-0.3,0-0.7-0.1-1-0.2c-0.3-0.1-0.6-0.3-0.8-0.6c-0.2-0.2-0.4-0.5-0.5-0.9C237.9,38.9,237.8,38.6,237.9,38.2
		L237.9,38.2z M190.2,38.2V14.7c0-0.3,0-0.7,0.1-1c0.1-0.3,0.3-0.6,0.5-0.9c0.2-0.2,0.5-0.4,0.8-0.6c0.3-0.1,0.7-0.2,1-0.2
		c0.5,0,0.9,0.1,1.3,0.3c0.4,0.2,0.7,0.6,0.9,1c2-1.2,4.3-1.8,6.7-1.7c0,0,0.1,0,0.1,0h0.1c0,0,0,0,0.1,0c7.2,0,11.5,4.3,11.5,11.5
		v15.1c0,0.3,0,0.7-0.1,1c-0.1,0.3-0.3,0.6-0.5,0.9c-0.2,0.2-0.5,0.4-0.9,0.6c-0.3,0.1-0.7,0.2-1,0.2c-0.3,0-0.7-0.1-1-0.2
		c-0.3-0.1-0.6-0.3-0.8-0.6c-0.2-0.2-0.4-0.5-0.5-0.9c-0.1-0.3-0.2-0.7-0.2-1V24c0-4.9-2.2-7.5-6.5-7.6c-4.3,0.1-6.5,2.7-6.5,7.6
		v14.2c0,0.3,0,0.7-0.2,1c-0.1,0.3-0.3,0.6-0.5,0.9c-0.2,0.2-0.5,0.4-0.8,0.6c-0.3,0.1-0.7,0.2-1,0.2c-0.3,0-0.7-0.1-1-0.2
		c-0.3-0.1-0.6-0.3-0.9-0.6c-0.2-0.2-0.4-0.5-0.5-0.9C190.2,38.9,190.2,38.6,190.2,38.2L190.2,38.2z M173,40.9L173,40.9
		c-0.1,0-0.1,0-0.1,0c-7.2,0-11.5-4.3-11.5-11.5V14.3c0-0.3,0-0.7,0.1-1c0.1-0.3,0.3-0.6,0.5-0.9c0.2-0.2,0.5-0.4,0.9-0.6
		c0.3-0.1,0.7-0.2,1-0.2c0.3,0,0.7,0.1,1,0.2c0.3,0.1,0.6,0.3,0.8,0.6c0.2,0.2,0.4,0.5,0.5,0.9c0.1,0.3,0.2,0.7,0.2,1v14.2
		c0,4.9,2.2,7.5,6.5,7.6c4.3-0.1,6.5-2.7,6.5-7.6V14.3c0-0.3,0-0.7,0.2-1c0.1-0.3,0.3-0.6,0.5-0.9c0.2-0.2,0.5-0.4,0.8-0.6
		c0.3-0.1,0.7-0.2,1-0.2c0.3,0,0.7,0.1,1,0.2c0.3,0.1,0.6,0.3,0.8,0.6c0.2,0.2,0.4,0.5,0.5,0.9c0.1,0.3,0.2,0.7,0.2,1h0v23.5
		c0,0.3,0,0.7-0.1,1c-0.1,0.3-0.3,0.6-0.5,0.9c-0.2,0.2-0.5,0.4-0.9,0.6c-0.3,0.1-0.7,0.2-1,0.2c-0.5,0-0.9-0.1-1.3-0.3
		c-0.4-0.2-0.7-0.6-0.9-1c-2,1.2-4.3,1.8-6.7,1.7C173.1,40.8,173.1,40.9,173,40.9L173,40.9z M364.3,40.6c-0.7,0-1.5-0.3-2-0.8
		c-0.5-0.5-0.8-1.2-0.9-1.9V22.7c0-0.4,0.1-0.7,0.2-1.1s0.4-0.6,0.6-0.9c0.3-0.3,0.6-0.5,0.9-0.6c0.3-0.1,0.7-0.2,1.1-0.2h13
		c6.9,0,11.6,4.1,11.6,10.3c0,6.2-4.6,10.3-11.6,10.3L364.3,40.6z M332.2,40.6c-0.7,0-1.5-0.3-2-0.8c-0.5-0.5-0.8-1.2-0.8-1.9V22.7
		c0-0.4,0.1-0.7,0.2-1.1c0.1-0.3,0.4-0.6,0.6-0.9c0.3-0.3,0.6-0.5,0.9-0.6c0.3-0.1,0.7-0.2,1.1-0.2h12.9c6.9,0,11.6,4.1,11.6,10.3
		c0,6.2-4.6,10.3-11.6,10.3L332.2,40.6z M129.6,40.6c-0.9,0-1.8-0.4-2.4-1c-0.6-0.6-1-1.5-1-2.4V2.9c0-0.7,0.3-1.3,0.8-1.8
		s1.2-0.8,1.8-0.8h7.3c6.6,0,10.9,3.7,10.9,9.5c0.1,2-0.5,4-1.6,5.7c6,0.7,11.5,4.6,11.5,12.5c0,7.3-5.5,12.6-13.1,12.6L129.6,40.6z
		 M131.4,20.6v14.7c0,0.1,0,0.2,0.1,0.2c0.1,0.1,0.2,0.1,0.2,0.1h11.7c5.1,0,8.2-2.9,8.2-7.7s-3.2-7.7-8.2-7.7h-11.7
		c0,0-0.1,0-0.1,0c0,0-0.1,0-0.1,0.1c0,0-0.1,0.1-0.1,0.1C131.4,20.5,131.4,20.5,131.4,20.6L131.4,20.6z M131.4,5.6V15
		c0,0.1,0,0.2,0.1,0.2s0.2,0.1,0.2,0.1h4.9c0.7,0.1,1.4,0,2-0.3c0.6-0.2,1.2-0.6,1.7-1.1c0.5-0.5,0.9-1.1,1.1-1.7
		c0.2-0.6,0.3-1.3,0.3-2c0.1-0.7,0-1.4-0.3-2c-0.2-0.6-0.6-1.2-1.1-1.7c-0.5-0.5-1.1-0.9-1.7-1.1c-0.6-0.2-1.3-0.3-2-0.3h-4.9
		c0,0-0.1,0-0.1,0c0,0-0.1,0-0.1,0.1c0,0-0.1,0.1-0.1,0.1C131.4,5.5,131.4,5.5,131.4,5.6L131.4,5.6z M3.4,40.6c-0.9,0-1.8-0.4-2.4-1
		c-0.6-0.6-1-1.5-1-2.4V2.9C0,2.2,0.3,1.5,0.8,1c0.5-0.5,1.2-0.8,1.8-0.8h7.3c6.6,0,10.9,3.7,10.9,9.5c0.1,2-0.5,4-1.6,5.7
		c6,0.7,11.5,4.6,11.5,12.5c0,7.3-5.5,12.6-13.1,12.6H3.4z M5.2,20.6v14.7c0,0.1,0,0.2,0.1,0.2c0.1,0.1,0.2,0.1,0.2,0.1h11.7
		c5.1,0,8.2-2.9,8.2-7.7c0-4.7-3.2-7.7-8.2-7.7H5.6c0,0-0.1,0-0.1,0c0,0-0.1,0-0.1,0.1c0,0-0.1,0.1-0.1,0.1
		C5.2,20.5,5.2,20.5,5.2,20.6z M5.2,5.6V15c0,0.1,0,0.2,0.1,0.2c0.1,0.1,0.2,0.1,0.2,0.1h4.9c0.7,0.1,1.4,0,2-0.3
		c0.6-0.2,1.2-0.6,1.7-1.1c0.5-0.5,0.9-1.1,1.1-1.7c0.2-0.6,0.3-1.3,0.3-2c0.1-0.7,0-1.4-0.3-2c-0.2-0.6-0.6-1.2-1.1-1.7
		c-0.5-0.5-1.1-0.9-1.7-1.1c-0.6-0.2-1.3-0.3-2-0.3H5.6c0,0-0.1,0-0.1,0c0,0-0.1,0-0.1,0.1c0,0-0.1,0.1-0.1,0.1
		C5.2,5.5,5.2,5.5,5.2,5.6z M364.2,15.2c-0.7,0-1.4-0.3-1.9-0.8c-0.5-0.5-0.8-1.2-0.8-1.9V2.9c0-0.7,0.3-1.4,0.8-1.9
		c0.5-0.5,1.2-0.8,1.9-0.8h5.3c4.7,0,7.9,3,7.9,7.5s-3.2,7.5-7.9,7.5L364.2,15.2z M332.1,15.2c-0.7,0-1.4-0.3-1.9-0.8
		c-0.5-0.5-0.8-1.2-0.8-1.9V2.9c0-0.7,0.3-1.4,0.8-1.9c0.5-0.5,1.2-0.8,1.9-0.8h5.3c4.7,0,7.9,3,7.9,7.5s-3.2,7.5-7.9,7.5
		L332.1,15.2z M237.3,4.6c0-0.6,0.2-1.2,0.5-1.7c0.3-0.5,0.8-0.9,1.4-1.1c0.6-0.2,1.2-0.3,1.8-0.2s1.1,0.4,1.6,0.8
		c0.4,0.4,0.7,1,0.8,1.5c0.1,0.6,0.1,1.2-0.2,1.7c-0.2,0.6-0.6,1-1.1,1.4s-1.1,0.5-1.7,0.5c-0.8,0-1.6-0.3-2.2-0.9
		C237.7,6.2,237.3,5.4,237.3,4.6z">
  </path>
 </g>
</svg>