<svg xmlns="http://www.w3.org/2000/svg" xmlns:xlink="http://www.w3.org/1999/xlink" width="75.147" height="70.946" viewBox="0 0 75.147 70.946"><defs><style>.a{fill:url(#a);}.b{fill:url(#b);}.c{fill:url(#c);}.d{fill:url(#d);}.e{fill:url(#e);}.f{fill:url(#f);}.g{fill:url(#g);}.h{fill:url(#h);}.i{fill:url(#i);}.j{fill:url(#j);}.k{fill:url(#k);}.l{fill:url(#l);}.m{fill:url(#m);}.n{fill:url(#n);}.o{fill:url(#o);}.p{fill:url(#p);}.q{fill:#126abf;}</style><linearGradient id="a" x1="-0.308" y1="0.392" x2="0.857" y2="0.548" gradientUnits="objectBoundingBox"><stop offset="0.041" stop-color="#ffea4e"/><stop offset="0.072" stop-color="#e7cd41"/><stop offset="0.202" stop-color="#895710"/><stop offset="0.248" stop-color="#966713"/><stop offset="0.339" stop-color="#bb931c"/><stop offset="0.466" stop-color="#f5d82a"/><stop offset="0.486" stop-color="#ffe42d"/><stop offset="0.516" stop-color="#f9dd2b"/><stop offset="0.56" stop-color="#e9ca27"/><stop offset="0.612" stop-color="#cfab21"/><stop offset="0.67" stop-color="#ab8018"/><stop offset="0.719" stop-color="#895710"/><stop offset="0.752" stop-color="#905f15"/><stop offset="0.806" stop-color="#a47623"/><stop offset="0.873" stop-color="#c49c3a"/><stop offset="0.951" stop-color="#f1d05a"/><stop offset="0.972" stop-color="#ffe064"/></linearGradient><linearGradient id="b" x1="0.766" y1="0.937" x2="0.039" y2="-0.429" gradientUnits="objectBoundingBox"><stop offset="0.012" stop-color="#ffea4e"/><stop offset="0.013" stop-color="#fde84d"/><stop offset="0.061" stop-color="#c09c2b"/><stop offset="0.095" stop-color="#996c17"/><stop offset="0.112" stop-color="#8b5a0f"/><stop offset="0.154" stop-color="#aa7f17"/><stop offset="0.203" stop-color="#c8a31e"/><stop offset="0.252" stop-color="#e0bf25"/><stop offset="0.302" stop-color="#f1d329"/><stop offset="0.351" stop-color="#fbdf2c"/><stop offset="0.4" stop-color="#ffe42d"/><stop offset="0.427" stop-color="#f9dd2b"/><stop offset="0.467" stop-color="#e9ca27"/><stop offset="0.514" stop-color="#cfab20"/><stop offset="0.565" stop-color="#ab8017"/><stop offset="0.606" stop-color="#8b5a0f"/><stop offset="0.654" stop-color="#916212"/><stop offset="0.73" stop-color="#a5791c"/><stop offset="0.825" stop-color="#c49f2d"/><stop offset="0.934" stop-color="#eed343"/><stop offset="0.972" stop-color="#ffe74c"/></linearGradient><linearGradient id="c" x1="1.234" y1="1.197" x2="-0.338" y2="-0.413" gradientUnits="objectBoundingBox"><stop offset="0.005" stop-color="#ffea4e"/><stop offset="0.023" stop-color="#e7cd41"/><stop offset="0.099" stop-color="#895710"/><stop offset="0.159" stop-color="#b08619"/><stop offset="0.219" stop-color="#d2af22"/><stop offset="0.273" stop-color="#eacc28"/><stop offset="0.32" stop-color="#f9dd2b"/><stop offset="0.354" stop-color="#ffe42d"/><stop offset="0.387" stop-color="#f9dd2b"/><stop offset="0.435" stop-color="#e9ca27"/><stop offset="0.491" stop-color="#cfab21"/><stop offset="0.553" stop-color="#ab8018"/><stop offset="0.606" stop-color="#895710"/><stop offset="0.655" stop-color="#905f15"/><stop offset="0.732" stop-color="#a47623"/><stop offset="0.83" stop-color="#c49c3a"/><stop offset="0.941" stop-color="#f1d05a"/><stop offset="0.972" stop-color="#ffe064"/></linearGradient><linearGradient id="d" x1="1.213" y1="0.986" x2="-0.392" y2="-0.51" href="#c"/><linearGradient id="e" x1="-0.092" y1="0.488" x2="1.18" y2="0.526" gradientUnits="objectBoundingBox"><stop offset="0.012" stop-color="#8b5a0f"/><stop offset="0.089" stop-color="#a67a15"/><stop offset="0.282" stop-color="#e5c626"/><stop offset="0.37" stop-color="#ffe42d"/><stop offset="0.416" stop-color="#fadf2b"/><stop offset="0.469" stop-color="#eed028"/><stop offset="0.526" stop-color="#dbb923"/><stop offset="0.587" stop-color="#bf981c"/><stop offset="0.648" stop-color="#9c6e13"/><stop offset="0.675" stop-color="#8b5a0f"/><stop offset="0.694" stop-color="#9d6f13"/><stop offset="0.735" stop-color="#c0981d"/><stop offset="0.775" stop-color="#dbb924"/><stop offset="0.814" stop-color="#efd029"/><stop offset="0.851" stop-color="#fade2c"/><stop offset="0.882" stop-color="#ffe32e"/></linearGradient><linearGradient id="f" x1="0.008" y1="0.352" x2="1.176" y2="0.776" gradientUnits="objectBoundingBox"><stop offset="0.142" stop-color="#00585f"/><stop offset="0.191" stop-color="#186e76"/><stop offset="0.276" stop-color="#3c9098"/><stop offset="0.355" stop-color="#56a8b1"/><stop offset="0.425" stop-color="#66b6c0"/><stop offset="0.481" stop-color="#6cbcc6"/><stop offset="0.975" stop-color="#6cbcc6"/></linearGradient><linearGradient id="g" x1="0.565" y1="0.569" x2="1.04" y2="0.729" gradientUnits="objectBoundingBox"><stop offset="0.155" stop-color="#0060ac"/><stop offset="0.165" stop-color="#005ca7"/><stop offset="0.242" stop-color="#05458a"/><stop offset="0.318" stop-color="#093576"/><stop offset="0.393" stop-color="#0b2b6a"/><stop offset="0.467" stop-color="#0c2866"/><stop offset="0.768" stop-color="#0060ac"/></linearGradient><linearGradient id="h" x1="1.037" y1="0.518" x2="0.353" y2="0.495" gradientUnits="objectBoundingBox"><stop offset="0.155" stop-color="#0060ac"/><stop offset="0.479" stop-color="#0060ac"/><stop offset="0.549" stop-color="#0158a2"/><stop offset="0.665" stop-color="#054489"/><stop offset="0.793" stop-color="#0c2866"/><stop offset="0.981" stop-color="#22408f"/></linearGradient><linearGradient id="i" x1="0.037" y1="0.591" x2="0.636" y2="0.468" gradientUnits="objectBoundingBox"><stop offset="0.155" stop-color="#0060ac"/><stop offset="0.291" stop-color="#0760ac"/><stop offset="0.479" stop-color="#0c61ac"/><stop offset="0.549" stop-color="#0c59a2"/><stop offset="0.665" stop-color="#0c4489"/><stop offset="0.793" stop-color="#0c2866"/><stop offset="0.981" stop-color="#22408f"/></linearGradient><linearGradient id="j" x1="0.81" y1="0.891" x2="0.006" y2="0.309" href="#h"/><linearGradient id="k" x1="0.275" y1="-1.079" x2="1.062" y2="3.92" gradientUnits="objectBoundingBox"><stop offset="0.043" stop-color="#6cbac1"/><stop offset="0.567" stop-color="#008390"/><stop offset="0.966" stop-color="#6cbac1"/></linearGradient><linearGradient id="l" x1="1.703" y1="1.102" x2="0.493" y2="0.298" gradientUnits="objectBoundingBox"><stop offset="0.355" stop-color="#00585f"/><stop offset="0.538" stop-color="#1a7077"/><stop offset="0.927" stop-color="#5eadb4"/><stop offset="1" stop-color="#6cbac1"/></linearGradient><linearGradient id="m" x1="0.508" y1="-0.088" x2="0.49" y2="1.716" gradientUnits="objectBoundingBox"><stop offset="0.184" stop-color="#00585f"/><stop offset="0.235" stop-color="#186e75"/><stop offset="0.322" stop-color="#3c8f96"/><stop offset="0.403" stop-color="#56a6ad"/><stop offset="0.476" stop-color="#66b4bb"/><stop offset="0.534" stop-color="#6cbac1"/><stop offset="0.975" stop-color="#6cbac1"/></linearGradient><linearGradient id="n" x1="-0.431" y1="0.236" x2="0.334" y2="0.451" gradientUnits="objectBoundingBox"><stop offset="0.005" stop-color="#ffea4e"/><stop offset="0.035" stop-color="#e7cd41"/><stop offset="0.157" stop-color="#895710"/><stop offset="0.198" stop-color="#966713"/><stop offset="0.28" stop-color="#bb931c"/><stop offset="0.394" stop-color="#f5d82a"/><stop offset="0.412" stop-color="#ffe42d"/><stop offset="0.438" stop-color="#f9dd2b"/><stop offset="0.474" stop-color="#e9ca27"/><stop offset="0.518" stop-color="#cfab21"/><stop offset="0.566" stop-color="#ab8018"/><stop offset="0.606" stop-color="#895710"/><stop offset="0.655" stop-color="#905f15"/><stop offset="0.732" stop-color="#a47623"/><stop offset="0.83" stop-color="#c49c3a"/><stop offset="0.941" stop-color="#f1d05a"/><stop offset="0.972" stop-color="#ffe064"/></linearGradient><linearGradient id="o" x1="1.257" y1="1.506" x2="0.441" y2="0.264" gradientUnits="objectBoundingBox"><stop offset="0.155" stop-color="#0060ac"/><stop offset="0.169" stop-color="#0159a4"/><stop offset="0.233" stop-color="#064287"/><stop offset="0.296" stop-color="#0a3273"/><stop offset="0.358" stop-color="#0d2867"/><stop offset="0.42" stop-color="#0e2563"/><stop offset="0.579" stop-color="#1d3f8e"/><stop offset="0.866" stop-color="#0060ac"/></linearGradient><linearGradient id="p" x1="0.539" y1="0.758" x2="0.472" y2="-0.049" gradientUnits="objectBoundingBox"><stop offset="0.184" stop-color="#00585f"/><stop offset="0.299" stop-color="#186e75"/><stop offset="0.496" stop-color="#3c8f96"/><stop offset="0.68" stop-color="#56a6ad"/><stop offset="0.845" stop-color="#66b4bb"/><stop offset="0.975" stop-color="#6cbac1"/></linearGradient></defs><g transform="translate(-343.806 -2974)"><path class="a" d="M236.622,192.032a.662.662,0,0,1-.027.062c.015-.022.027-.045.04-.064A.022.022,0,0,1,236.622,192.032Z" transform="translate(135.669 2794.057)"/><path class="b" d="M263.546,144.307a17.57,17.57,0,0,1-1.479,7.076s0,.008,0,.01a17.635,17.635,0,0,1-3.928,5.63,17.13,17.13,0,0,1-1.417,1.233,17.589,17.589,0,0,1-8.5,3.581l-.245.03a17.905,17.905,0,0,1-4.48-.03c-.057-.092-.114-.186-.168-.28-.027-.049-.057-.1-.084-.151-.057-.1-.112-.2-.166-.307s-.106-.211-.156-.32a10.464,10.464,0,0,1-.686-1.907l-.015-.06c-.017-.069-.032-.136-.05-.206s-.027-.121-.04-.183a14.3,14.3,0,0,0,13.233-9.285s0-.008.005-.01a10.376,10.376,0,0,0,.946-2.727c.012-.045.02-.092.03-.139a10.662,10.662,0,0,0-.589-5.934s0-.01,0-.015a10.3,10.3,0,0,0-.815-1.6,10.725,10.725,0,0,0-2.806-3.027,10.6,10.6,0,0,0-6.271-2.043c-.1,0-.193,0-.29,0-.047,0-.092,0-.136.005a10.083,10.083,0,0,0-1.293.129l-.114.02q-.279.048-.55.111c-.064.015-.129.03-.193.047-.042.007-.082.02-.121.03-.077.02-.151.04-.225.062s-.168.05-.253.077a.321.321,0,0,0-.045.012c-.067.022-.134.042-.2.067-.107.035-.213.074-.32.114s-.211.082-.315.124-.208.087-.312.134-.2.094-.3.144c-.2.1-.4.2-.594.315-.265.151-.523.312-.773.485-.047.032-.1.067-.144.1-.089.062-.178.129-.265.2-.193.146-.379.3-.56.458-.1.084-.2.176-.3.267-.05.045-.1.092-.144.139-.082.077-.158.156-.235.235-.054.057-.109.114-.158.168s-.1.111-.151.168c-.079.089-.159.178-.23.27-.04.045-.077.092-.111.136s-.074.092-.109.139q-.111.141-.215.29c-.067.089-.129.181-.191.272-.04.057-.077.114-.114.173s-.074.114-.111.173a.022.022,0,0,1-.012,0c.059-.136.124-.272.188-.409l0,0q.03-.071.067-.141c.01-.022.02-.042.03-.062.064-.129.129-.258.2-.384.087-.163.176-.327.267-.485s.186-.317.285-.473c.082-.134.166-.263.253-.391.04-.059.079-.119.119-.176.082-.119.163-.233.245-.347.1-.131.193-.26.295-.389.015-.022.032-.042.047-.062.079-.1.156-.2.238-.292a.129.129,0,0,1,.03-.035c.062-.077.126-.154.193-.228a.025.025,0,0,1,.01-.012c.032-.04.067-.079.1-.116a.336.336,0,0,1,.04-.042c.06-.069.121-.136.183-.2.079-.089.161-.176.245-.263l.1-.1c0-.007.007-.012.01-.012a.31.31,0,0,1,.04-.04c.062-.064.124-.126.188-.188l.047-.045.077-.072c.111-.109.223-.213.337-.312s.23-.2.347-.3.235-.2.357-.292c.077-.062.154-.121.23-.181,0,0,0,0,0,0a.335.335,0,0,1,.052-.037l0,0a.047.047,0,0,1,.017-.015.115.115,0,0,1,.03-.022c.04-.032.082-.062.121-.089a.085.085,0,0,1,.025-.02h0c.005-.008.008-.01.012-.01a.23.23,0,0,1,.042-.03c.065-.049.129-.1.2-.141.252-.178.51-.347.77-.51.069-.045.141-.087.213-.129s.124-.072.186-.109c.134-.077.267-.151.4-.225s.272-.144.411-.213c.277-.141.56-.27.845-.391.267-.114.542-.223.817-.322l.092-.032c.158-.054.314-.109.475-.159.064-.022.126-.042.191-.059s.136-.042.206-.062c.146-.042.292-.082.441-.119.218-.057.438-.106.659-.154.067-.015.131-.027.2-.04l.158-.03q.193-.037.386-.067c.126-.02.255-.04.386-.057.1-.012.191-.025.287-.035.062-.007.126-.015.188-.02.084-.01.171-.017.258-.022.062-.007.121-.012.183-.015.136-.012.27-.02.406-.025.074,0,.151-.007.228-.01.161,0,.324-.007.488-.007a15.338,15.338,0,0,1,6.412,1.394,17.664,17.664,0,0,1,6.209,13.444Z" transform="translate(135.518 2847.38)"/><path class="c" d="M193.952,284.855c-.292-.228-.58-.466-.857-.711a17.8,17.8,0,0,1-4.48-6.145,14.325,14.325,0,0,0,5.228,5.152C193.851,283.725,193.891,284.295,193.952,284.855Z" transform="translate(176.565 2720.782)"/><path class="d" d="M195.277,246.106c-.064.141-.124.285-.181.428a17.393,17.393,0,0,0-1.224,5.023q-.078.806-.077,1.63c0,.1,0,.208.005.312a14.325,14.325,0,0,1-5.228-5.152l-.007-.015a10.7,10.7,0,0,1,5.721-5.122,10.581,10.581,0,0,0,.991,2.9Z" transform="translate(176.607 2750.433)"/><path class="e" d="M208.378,114.417a15.337,15.337,0,0,0-6.412-1.394c-.163,0-.327,0-.488.007-.077,0-.154,0-.228.01-.136,0-.27.012-.406.025-.062,0-.121.007-.183.015-.087.005-.173.012-.258.022-.062,0-.126.012-.188.02-.1.01-.191.022-.287.035-.131.017-.26.037-.386.057s-.257.042-.386.067l-.158.03c-.067.012-.131.025-.2.04-.22.047-.441.1-.659.154-.149.037-.295.077-.441.119-.069.02-.139.04-.206.062s-.126.037-.191.06c-.191.059-.379.124-.567.191-.275.1-.55.208-.817.322-.285.121-.567.25-.845.391-.139.069-.275.139-.411.213s-.27.149-.4.225c-.062.037-.126.072-.186.109s-.144.084-.213.129c-.26.163-.518.332-.77.51-.067.045-.131.092-.2.141a.212.212,0,0,0-.042.03s-.008,0-.012.01h0a.087.087,0,0,0-.025.02c-.04.027-.082.057-.121.089a.119.119,0,0,0-.03.022.046.046,0,0,0-.017.015l0,0a.33.33,0,0,0-.052.037s0,0-.005,0c-.077.059-.154.119-.23.181-.121.1-.24.193-.357.292s-.233.2-.347.3-.225.2-.337.312l-.077.072-.047.044c-.065.062-.126.121-.188.188a.3.3,0,0,0-.04.04s-.007,0-.01.012l-.1.1c-.084.087-.166.173-.245.263-.062.067-.124.134-.183.2a.308.308,0,0,0-.04.042c-.035.037-.069.077-.1.116a.024.024,0,0,0-.01.012c-.067.074-.131.151-.193.228a.129.129,0,0,0-.03.035c-.082.094-.161.193-.238.292-.015.02-.032.04-.047.062-.1.129-.2.258-.295.389-.082.114-.163.228-.245.347-.04.057-.079.117-.119.176-.087.129-.171.258-.253.391-.1.156-.193.312-.285.473s-.181.322-.267.486c-.069.126-.134.255-.2.384-.01.02-.02.04-.03.062q-.037.071-.067.141l0,0c-.064.136-.129.272-.188.409a17.6,17.6,0,0,0-8.483,3.576,17.514,17.514,0,0,1,1.127-4.488,17.67,17.67,0,0,1,27.921-6.935Z" transform="translate(184.479 2863.826)"/><path class="f" d="M253.934,253.166a15.253,15.253,0,0,1-.342,3.23,15.494,15.494,0,0,1-6.615,9.677,17.669,17.669,0,0,1-19.415-6.232l0,0a17.531,17.531,0,0,1-3.453-8.624h0a18.068,18.068,0,0,1-.114-2.016q0-.825.077-1.63a17.391,17.391,0,0,1,1.224-5.023c.057-.144.116-.287.181-.428a17.531,17.531,0,0,1,2.088-3.562c.23-.017.461-.025.694-.025a10.668,10.668,0,0,1,2.5.295c.2.049.391.1.585.158a14.3,14.3,0,0,0,1.357,15.958,10.582,10.582,0,0,0,1.835,2.162c.141.131.285.255.433.374a10.63,10.63,0,0,0,6.712,2.385c.233,0,.466-.007.694-.025a10.666,10.666,0,0,0,9.974-10.64,10.822,10.822,0,0,0-.149-1.781,10.535,10.535,0,0,0-1-3.019,15.14,15.14,0,0,1,1.4,2.482A15.355,15.355,0,0,1,253.934,253.166Z" transform="translate(146.413 2754.422)"/><path class="g" d="M254.992,212.678c-.446.277-.9.532-1.375.77a17.586,17.586,0,0,1-5.553,1.716,10.684,10.684,0,0,1-2.363,2.682,10.6,10.6,0,0,0,6.712,2.385c.225,0,.451-.007.671-.022A14.29,14.29,0,0,0,255,213.047C255,212.923,254.994,212.8,254.992,212.678Zm-18.378-20.641c-.007.02-.017.042-.027.062.015-.022.027-.045.04-.065A.022.022,0,0,1,236.614,192.036Z" transform="translate(135.676 2794.053)"/><path class="h" d="M351.791,324.428c-.04.357-.089.711-.154,1.063a17.576,17.576,0,0,1-3.3,7.562.072.072,0,0,0-.022,0,14.289,14.289,0,0,0,1.912-7.163c0-.124,0-.248,0-.369A17.579,17.579,0,0,0,351.791,324.428Z" transform="translate(40.445 2681.208)"/><path class="i" d="M167.116,201.589c-.054.1-.109.206-.163.307-.022.035-.042.072-.062.106a.078.078,0,0,0-.01.02c-.049.084-.1.166-.149.248l-.045.072c-.047.079-.1.158-.151.235a1.325,1.325,0,0,1-.082.124c-.045.067-.089.131-.136.2s-.1.149-.161.22q-.06.082-.126.163a.608.608,0,0,1-.064.082c-.072.094-.149.186-.225.275-.176.208-.362.411-.555.6l-.109.109c-.067.067-.136.131-.206.2l-.072.067-.012.012a14.29,14.29,0,0,0-14.618-6.6,10.393,10.393,0,0,0-2.89.607c-.049.017-.1.035-.144.054a10.678,10.678,0,0,0-6.893,9.976c0,.037,0,.074,0,.111a10.666,10.666,0,0,0,9.969,10.529l0,0a15.416,15.416,0,0,1-1.984.126c-.334,0-.669-.01-1-.032a15.483,15.483,0,0,1-13.989-11.636,17.714,17.714,0,0,1,15.287-16.632c-.007.02-.017.042-.027.062.015-.022.027-.045.04-.065a18.162,18.162,0,0,1,2.363-.156,17.643,17.643,0,0,1,4.485.577,17.153,17.153,0,0,1,2.227.748c.146.059.295.121.438.188.072.03.144.062.213.1s.168.074.25.116c.064.03.126.059.191.092.131.065.263.129.391.2l0,0c.062.032.124.064.186.1.084.045.168.089.253.139l.015.008c.124.069.248.141.369.215.1.06.206.121.307.186.23.144.456.29.679.446.072.047.141.1.211.146.106.074.213.151.317.23.042.03.082.062.124.094.064.047.126.094.191.149a.025.025,0,0,1,.017.012l0,0c.079.062.161.126.238.188a.081.081,0,0,1,.02.015c.092.072.183.149.275.228a.014.014,0,0,1,.01.007c.136.114.267.23.4.349s.268.245.4.369.243.235.362.357c.084.084.166.168.245.255.007,0,.012.007.012.012.037.037.072.074.1.111.005,0,.008,0,.005.005.067.069.129.139.191.208.092.1.178.2.263.3.035.04.067.077.1.116q.149.171.29.349c.116.144.228.287.339.433A17.559,17.559,0,0,1,167.116,201.589Z" transform="translate(223.758 2794.953)"/><path class="j" d="M157.484,321.941a17.474,17.474,0,0,1-4,1.117,17.7,17.7,0,0,1-20.4-17.479c0-.3.007-.6.025-.9A15.49,15.49,0,0,0,147.1,316.316c.329.022.664.032,1,.032a15.436,15.436,0,0,0,1.984-.126A17.739,17.739,0,0,0,157.484,321.941Z" transform="translate(223.895 2698.041)"/><path class="k" d="M307.391,191.136c-.074,0-.149,0-.223,0a14.2,14.2,0,0,0-7.207,1.949c-.055-.03-.107-.059-.161-.087l0,0c-.129-.069-.26-.134-.391-.2-.064-.032-.126-.062-.191-.092-.082-.042-.166-.079-.25-.116s-.141-.067-.213-.1c-.144-.067-.292-.129-.438-.188.166-.069.334-.134.505-.2a17.554,17.554,0,0,1,6.207-1.127A17.743,17.743,0,0,1,307.391,191.136Z" transform="translate(83.064 2794.953)"/><path class="l" d="M318.489,197.634a10.606,10.606,0,0,1-.181,1.957,9.977,9.977,0,0,0-1.082-.344,10.249,10.249,0,0,0-2-.322c-.111-.146-.223-.29-.339-.433q-.141-.178-.29-.349c-.032-.04-.064-.077-.1-.116-.084-.1-.171-.2-.263-.3-.062-.069-.124-.139-.191-.208,0,0,0,0-.005-.005q-.048-.056-.1-.111s0-.007-.012-.012c-.079-.087-.161-.171-.245-.255-.119-.121-.238-.24-.362-.357s-.262-.25-.4-.369-.265-.235-.4-.349a.014.014,0,0,0-.01-.007c-.092-.079-.183-.156-.275-.228a.08.08,0,0,0-.02-.015c-.079-.067-.158-.129-.238-.188l0,0a.025.025,0,0,0-.017-.012c-.064-.055-.126-.1-.191-.149-.042-.032-.082-.064-.124-.094-.1-.079-.211-.156-.317-.23-.069-.052-.139-.1-.211-.146-.223-.156-.448-.3-.679-.446-.1-.064-.2-.126-.307-.186-.121-.074-.245-.146-.369-.215l-.015-.008c-.084-.049-.168-.094-.253-.139a.121.121,0,0,0-.025-.012,14.2,14.2,0,0,1,7.207-1.949c.074,0,.149,0,.223,0A10.6,10.6,0,0,1,318.489,197.634Z" transform="translate(73.556 2794.053)"/><path class="m" d="M392.059,230.221A17.715,17.715,0,0,1,379.673,247.1a15.447,15.447,0,0,0,5.62-19.192,15.125,15.125,0,0,0-1.4-2.482.581.581,0,0,0-.027-.057,17.658,17.658,0,0,0,1.362-9.1,17.869,17.869,0,0,1,2.952,2.915A17.6,17.6,0,0,1,392.059,230.221Z" transform="translate(13.718 2773.398)"/><path class="n" d="M285,262.685a14.3,14.3,0,0,1-13.233,9.285c-.06-.295-.109-.589-.146-.892a10.675,10.675,0,0,1,.074-3.1c.01-.05.017-.1.027-.151l.072.027a10.563,10.563,0,0,0,3,.641c.233.015.468.022.7.022a10.6,10.6,0,0,0,3.772-.689c.077-.03.156-.059.233-.092.168-.069.334-.141.5-.218.126-.059.25-.119.372-.183s.235-.124.349-.188c.158-.089.312-.181.463-.277l.1-.067a.1.1,0,0,0,.02-.015c.062-.037.124-.079.183-.119l.089-.062.134-.1.134-.1c.03-.022.06-.042.087-.064,0,0,0,0,0,0A.584.584,0,0,0,282,266.3l0,0c.092-.069.178-.139.268-.213.035-.027.067-.054.1-.082.1-.089.208-.178.307-.27l.072-.067c.069-.064.139-.129.206-.2l.109-.109c.193-.193.379-.4.555-.6.077-.089.154-.181.225-.275a.613.613,0,0,0,.064-.082q.067-.082.126-.163c.057-.072.109-.146.161-.22s.092-.129.136-.2a1.324,1.324,0,0,0,.082-.124c.052-.077.1-.156.151-.235l.045-.072c.049-.082.1-.163.149-.248a.077.077,0,0,1,.01-.02c.02-.035.04-.072.062-.106.055-.1.109-.2.163-.307A.094.094,0,0,0,285,262.685Z" transform="translate(105.881 2733.834)"/><path class="o" d="M262.477,244.112c-.094.087-.2.171-.295.258-.032.027-.064.055-.1.082-.089.074-.176.144-.268.213l0,0a.576.576,0,0,1-.062.047s0,0,0,0c-.027.022-.057.042-.087.065l-.134.1-.134.1-.089.062c-.059.04-.121.082-.183.119a.1.1,0,0,1-.02.015l-.1.067c-.151.1-.3.188-.463.277-.114.064-.23.129-.349.188s-.245.124-.372.183c-.163.077-.329.149-.5.218-.077.032-.156.062-.233.092-.007-.042-.015-.082-.025-.124a10.584,10.584,0,0,0-1.209-3.225,10.7,10.7,0,0,0-2.539-2.977c-.114-.094-.228-.183-.347-.27-.089-.067-.176-.131-.268-.193-.064-.047-.131-.094-.2-.136-.042-.03-.082-.057-.124-.082,0,0-.005-.005-.008,0a2.809,2.809,0,0,0-.243-.151l0,0c-.072-.047-.146-.092-.22-.131a1.534,1.534,0,0,0-.149-.084c-.134-.077-.27-.149-.406-.215-.027-.015-.052-.027-.079-.04-.047-.025-.1-.047-.144-.069-.139-.067-.282-.129-.423-.188s-.3-.121-.448-.176h0a10.483,10.483,0,0,0-3.651-.644c-.233,0-.463.007-.694.025a.276.276,0,0,0-.045.005,14.29,14.29,0,0,1,14.618,6.6Z" transform="translate(126.069 2755.466)"/><path class="p" d="M266.9,243.532c-.2.163-.4.334-.587.515a10.625,10.625,0,0,0-3.185,5.808c-.01.049-.017.1-.027.151a10.676,10.676,0,0,0-.074,3.1c.045.364.107.721.186,1.075.017.069.032.136.05.206l.015.06a10.465,10.465,0,0,0,.686,1.907c.049.109.1.213.156.32s.109.206.166.307c.027.052.057.1.084.151.054.094.111.188.168.28.03.049.062.1.094.146a14.3,14.3,0,0,1-1.357-15.958c.191.06.379.121.565.191h0c.151.054.3.114.448.176s.285.121.423.188c.047.022.1.045.144.069.027.012.052.025.079.04.136.067.272.139.406.215.049.027.1.054.149.084.074.04.148.084.22.131l0,0c.082.049.163.1.243.151,0,0,.005,0,.008,0,.042.025.082.052.124.082.067.042.134.089.2.136q.138.093.268.193C266.677,243.349,266.791,243.44,266.9,243.532Z" transform="translate(114.473 2751.806)"/><g transform="translate(343.806 3026.823)"><path class="q" d="M372.176,558.679a7.081,7.081,0,0,1-2.739-.532,3.733,3.733,0,0,1-1.224-.773,1.991,1.991,0,0,1-.594-1.649,2.2,2.2,0,0,1,1.049-1.6,6.147,6.147,0,0,1,2.689-.862c.208-.022.419-.035.587-.045l.184-.012h.021a7.164,7.164,0,0,1,3.5.821,2.192,2.192,0,0,1,1.164,1.5,2.1,2.1,0,0,1-.992,2.228,5.739,5.739,0,0,1-2.24.808A8.995,8.995,0,0,1,372.176,558.679Zm.073-4.729a1.5,1.5,0,0,0-1.626,1.045,3.114,3.114,0,0,0,0,1.9,1.345,1.345,0,0,0,1.089.991,2.874,2.874,0,0,0,.583.056c.047,0,.095,0,.143,0a1.447,1.447,0,0,0,1.449-1.152,3.3,3.3,0,0,0,.088-1.276,1.778,1.778,0,0,0-.519-1.161,1.731,1.731,0,0,0-1.2-.4Z" transform="translate(-319.803 -540.614)"/><path class="q" d="M314.071,558.617c-.082,0-.167,0-.25,0a5.806,5.806,0,0,1-2.924-.675,2.278,2.278,0,0,1-1.194-2.574,2.219,2.219,0,0,1,.991-1.359,6.632,6.632,0,0,1,3.22-.869,7.26,7.26,0,0,1,2.446.468.743.743,0,0,0,.239.054.243.243,0,0,0,.209-.123.454.454,0,0,1,.331-.149c.035,0,.067-.009.094-.016l.278-.07v1.975l-.15.053a.628.628,0,0,1-.206.039.476.476,0,0,1-.417-.274,2.324,2.324,0,0,0-1.605-1.067,3.482,3.482,0,0,0-.759-.085,3.163,3.163,0,0,0-.334.017,1.434,1.434,0,0,0-1.263,1.112,2.649,2.649,0,0,0-.058,1.489,1.579,1.579,0,0,0,1.685,1.275h.037a2.786,2.786,0,0,0,1.933-.749,1.818,1.818,0,0,0,.357-.441.489.489,0,0,1,.43-.29.648.648,0,0,1,.194.033l.157.049v2.119l-.29-.09c-.031-.01-.066-.017-.1-.024a.55.55,0,0,1-.319-.147.275.275,0,0,0-.22-.11.639.639,0,0,0-.212.046A6.72,6.72,0,0,1,314.071,558.617Z" transform="translate(-270.394 -540.551)"/><path class="q" d="M498.317,558.862v-.583l.115-.064h0a.28.28,0,0,1,.129-.049h.007a1.264,1.264,0,0,0,.448-.079,1.251,1.251,0,0,0,.046-.451v-2.978a1.256,1.256,0,0,0-.05-.477,1.337,1.337,0,0,0-.491-.095l-.2-.018V553.4h4.2v0h.136a6.106,6.106,0,0,1,2.569.5,1.473,1.473,0,0,1,.89.971,1.3,1.3,0,0,1-.763,1.466,4.762,4.762,0,0,1-1.647.5c-.365.049-1.353.079-1.9.079h-.03v1.022c.013.143.038.156.053.164l0,0,0,0,.011.006a.25.25,0,0,0,.089.027c.041.005.084.01.132.014h.007c.054.006.114.01.186.016h.006a.284.284,0,0,1,.131.051l0,0,.112.065,0,.128v.447Zm3.454-2.689a5.47,5.47,0,0,0,1.034.106h.056a.964.964,0,0,0,1-.649,1.568,1.568,0,0,0,.064-.691l0-.013V554.9h0c0-.025-.007-.05-.013-.077v0h0l-.006-.031v0l0-.011c0-.009,0-.018-.007-.027a.987.987,0,0,0-.069-.188l-.072-.1a1.814,1.814,0,0,0-.207-.125l-.016-.008-.005,0a1.108,1.108,0,0,0-.2-.089h0l-.021-.008-.017,0-.011-.005a2.666,2.666,0,0,0-.862-.133l-.123,0a.868.868,0,0,1-.124.014.57.57,0,0,0-.328.067.581.581,0,0,0-.058.334c0,.093,0,.465,0,.558v.224h0Z" transform="translate(-431.212 -540.773)"/><path class="q" d="M437.533,558.68a7.08,7.08,0,0,1-2.739-.532,3.733,3.733,0,0,1-1.224-.773,1.991,1.991,0,0,1-.594-1.648,2.2,2.2,0,0,1,1.049-1.6,6.141,6.141,0,0,1,2.689-.862c.208-.022.418-.035.587-.045l.185-.012h.02l.093,0a7.069,7.069,0,0,1,3.412.818,2.189,2.189,0,0,1,1.163,1.5,2.1,2.1,0,0,1-.992,2.228,5.744,5.744,0,0,1-2.24.808,8.974,8.974,0,0,1-1.349.115Zm.059-4.729A1.491,1.491,0,0,0,435.98,555a3.113,3.113,0,0,0,0,1.9,1.345,1.345,0,0,0,1.089.991,2.823,2.823,0,0,0,.527.055h.073l.125,0a1.448,1.448,0,0,0,1.449-1.153,3.3,3.3,0,0,0,.088-1.276,1.778,1.778,0,0,0-.519-1.161,1.729,1.729,0,0,0-1.2-.4Z" transform="translate(-375.509 -540.614)"/><path class="q" d="M151.6,558.906v-.676l.192-.027.109-.018.02-.005h0a.6.6,0,0,0,.058-.016h0l.017-.006,0,0c.036-.015.06-.025.075-.158a2.18,2.18,0,0,0,.011-.224v0c0-.036,0-.074,0-.115v-2.983c0-.041,0-.079,0-.115v0a2.18,2.18,0,0,0-.011-.224c-.015-.133-.039-.143-.075-.158h0l-.017-.006h0a.557.557,0,0,0-.057-.016h0l-.021-.005c-.03-.006-.065-.011-.107-.017l-.195-.025v-.678h3.2v.679l-.2.032-.058.01a.621.621,0,0,0-.08.021l-.019.007,0,0h0l-.006,0c-.03.013-.054.024-.069.155,0,.024,0,.049-.006.077v0c0,.04,0,.087,0,.142v0c0,.036,0,.074,0,.115v2.983c0,.041,0,.079,0,.115v0c0,.055,0,.1,0,.142v0c0,.027,0,.053.006.076.015.132.039.143.069.156l.006,0h0l0,0,.019.007a.645.645,0,0,0,.079.021l.058.01.2.032v.679Z" transform="translate(-135.692 -540.797)"/><path class="q" d="M178.075,558.949a7.08,7.08,0,0,1-2.738-.532,3.736,3.736,0,0,1-1.224-.773,1.991,1.991,0,0,1-.594-1.649,2.2,2.2,0,0,1,1.049-1.6,6.142,6.142,0,0,1,2.689-.861c.208-.022.418-.035.587-.045l.185-.012h.02l.093,0a7.068,7.068,0,0,1,3.412.818,2.189,2.189,0,0,1,1.163,1.5,2.1,2.1,0,0,1-.992,2.228,5.745,5.745,0,0,1-2.241.808,8.965,8.965,0,0,1-1.349.115Zm.059-4.729a1.492,1.492,0,0,0-1.611,1.045,3.113,3.113,0,0,0,0,1.9,1.346,1.346,0,0,0,1.089.991,2.817,2.817,0,0,0,.527.055h.073l.126,0a1.448,1.448,0,0,0,1.449-1.153,3.3,3.3,0,0,0,.088-1.276,1.777,1.777,0,0,0-.519-1.161,1.73,1.73,0,0,0-1.2-.4Z" transform="translate(-154.363 -540.845)"/><path class="q" d="M241.4,558.923c-.036,0-.064,0-.09,0a.5.5,0,0,1-.355-.136l-3.885-4.213v2.18c0,.287-.009.526-.016.753v.473c.012.138.036.154.051.162l.008,0h0l.01.006a.254.254,0,0,0,.089.028l.113.012.206.016v.716H235.8v-.715l.2-.022a.931.931,0,0,0,.215-.042c.042-.017.077-.031.08-.405v0c0-.02,0-.04,0-.062V554.7a1.443,1.443,0,0,0-.043-.468c-.019-.032-.1-.058-.26-.079l-.194-.026v-.686h3.045a.626.626,0,0,1,.385.1l.011.009,3.151,3.549.058.066v-1.515h0v-.282c0-.046,0-.1,0-.149v-.121c0-.007,0-.013,0-.019v-.387c0-.041,0-.079,0-.115v-.006c0-.019,0-.038,0-.055v0c0-.028,0-.053,0-.078v-.005c0-.028,0-.053-.006-.076-.015-.132-.039-.143-.069-.156l-.006,0h0l0,0-.019-.007a.626.626,0,0,0-.079-.02l-.062-.011-.019,0-.007,0-.017-.005-.152-.052v-.646h.785l.273,0v0h.63v.675l-.186.032-.018,0-.011,0h-.006l-.035.006a.658.658,0,0,0-.08.021l-.019.007,0,0h0l-.006,0c-.03.014-.054.024-.069.155,0,.024-.005.05-.006.077v.005c0,.025,0,.051,0,.079v0c0,.018,0,.036,0,.055v.006c0,.036,0,.074,0,.115v.387c0,.006,0,.012,0,.018v.007c0,.058,0,.111,0,.162V556.4h0v2.167a.353.353,0,0,1-.319.355.438.438,0,0,1-.051,0H241.4Z" transform="translate(-207.455 -540.808)"/><path class="q" d="M101.775,558.886c-.036,0-.064,0-.09,0a.5.5,0,0,1-.355-.136l-3.885-4.213v2.18c0,.287-.009.526-.016.753v.473c.012.138.036.154.051.163l.008,0h0l.01.006a.251.251,0,0,0,.089.027l.113.012.206.016v.716H96.172v-.715l.2-.022a.924.924,0,0,0,.215-.042c.042-.017.077-.031.08-.405v0c0-.02,0-.04,0-.062v-2.978a1.437,1.437,0,0,0-.043-.468c-.019-.032-.1-.058-.26-.079l-.195-.026V553.4h3.045a.627.627,0,0,1,.386.1l.01.009,3.151,3.549.058.066v-1.516h0v-.337c0-.052,0-.108,0-.169v-.046c0-.007,0-.013,0-.019v-.347c0-.031,0-.06,0-.088v0c0-.006,0-.012,0-.017v-.012c0-.019,0-.037,0-.055v-.005c0-.028,0-.053,0-.078v-.005c0-.027,0-.053-.006-.076-.015-.132-.039-.143-.069-.156l-.005,0h0l0,0-.019-.007a.636.636,0,0,0-.079-.021l-.062-.011-.019,0-.007,0-.017-.005-.153-.051V553.4h.785l.273,0v0h.63v.706l-.185.039-.013,0-.011,0-.011,0-.035.006a.606.606,0,0,0-.08.021l-.019.007,0,0-.008,0c-.03.014-.054.024-.069.155,0,.024,0,.05-.006.077v.006c0,.025,0,.051,0,.078v.008c0,.018,0,.036,0,.055s0,.013,0,.019v.011c0,.029,0,.059,0,.091v.344c0,.006,0,.012,0,.018v.007c0,.038,0,.078,0,.119,0,.014,0,.071,0,.084v1.1h0v2.167a.353.353,0,0,1-.319.355.416.416,0,0,1-.051,0h-1.463Z" transform="translate(-88.445 -540.776)"/><path class="q" d="M47.756,558.907c-.286,0-.565-.011-.827-.032a7.476,7.476,0,0,1-.956-.134l-.03-.006-.008,0-.027-.006a3.1,3.1,0,0,1-1.192-.493l-.012-.01-.011-.011a1.555,1.555,0,0,1-.34-.963v-2.58c0-.041,0-.079,0-.115v0a2.21,2.21,0,0,0-.011-.224c-.015-.133-.039-.143-.075-.158h0l-.018-.007h0c-.017-.006-.037-.011-.057-.016h0l-.021-.005-.1-.017-.194-.026v-.689h3.684v.689l-.193.027c-.039.005-.074.011-.105.017a.621.621,0,0,0-.078.02l-.019.007,0,0h0l-.006,0c-.03.013-.054.024-.069.155q0,.036-.006.077v0c0,.04,0,.087,0,.142v0c0,.036,0,.074,0,.115v2.837a.711.711,0,0,0,.029.2l.017.015a1.775,1.775,0,0,0,1.192.375h.042a2.858,2.858,0,0,0,1.022-.168l.01,0,.011,0a.965.965,0,0,0,.415-.227l.011-.013.011-.009a.322.322,0,0,0,.095-.144l0-.006a2.165,2.165,0,0,0,.02-.219l0-.792v-1.165c0-.047,0-.1,0-.149v-.127c0-.2-.015-.36-.032-.5-.009-.078-.021-.15-.034-.214l0-.009,0-.021a.461.461,0,0,0-.025-.1l-.012-.024a.153.153,0,0,0-.057-.043l-.005,0,0,0-.011-.006a.2.2,0,0,0-.051-.019h0l-.032-.007-.217-.027v-.689h1.875v.7l-.206.016c-.041,0-.081.008-.117.013a.249.249,0,0,0-.086.027l-.01.006,0,0-.005,0a.145.145,0,0,0-.058.044l-.011.022a.464.464,0,0,0-.025.1l0,.026v0c-.013.063-.024.135-.034.214-.017.139-.027.3-.032.5,0,.061,0,.117,0,.17v2.272c0,.605-.4,1.015-1.2,1.217a4.475,4.475,0,0,1-.518.1l-.062.008-.066.008-.085.009-.169.015-.084.006h0C48.3,558.9,48.04,558.907,47.756,558.907Z" transform="translate(-43.862 -540.784)"/><path class="q" d="M45.443,493.482l-.6-.846h3.162l0-1.034a7.13,7.13,0,0,0-.2-2.433c-.277.045-.738.471-1.42,2.127l-.264.642-.561-2.368.275-.007a.678.678,0,0,0,.527-.3l.066-.071a1.942,1.942,0,0,1,1.619-.725c.851,0,1.455.552,1.793,1.642a9.989,9.989,0,0,1,.331,2.889v.488Z" transform="translate(-44.702 -485.43)"/><path class="q" d="M107.909,475.7v3.8c0,.952-.8,1.543-2.092,1.543H88.058v-.013c-1.1-.091-1.773-.665-1.773-1.53v-5.265l2.052-.364V479.5c0,.7.194.7.3.7h13.057a8.167,8.167,0,0,0-.512-2.706c-.245-.573-.559-.9-.863-.9-.328,0-.93.722-1.477,2.309l-.149.433L97.565,477.6l.067-.118a2.764,2.764,0,0,1,2.717-1.548,3.266,3.266,0,0,1,2.666,1.442,5.393,5.393,0,0,1,.961,2.825h1.553c.1-.007.338-.04.328-.694v-3.24Z" transform="translate(-80.021 -472.994)"/><path class="q" d="M203.237,470.49l1.6-.837.677.444.867-.444,1.425.96-1.612.835-.676-.443-.857.444Z" transform="translate(-179.704 -469.396)"/><path class="q" d="M239.167,475.521v5.386c0,.464-.194,1.543-2,1.543h-3.66l.545-.846h.37v-4.78l2.052-.564v5.349l.352-.007a.3.3,0,0,0,.209-.139,1.36,1.36,0,0,0,.078-.556v-4.822Z" transform="translate(-205.507 -474.398)"/><path class="q" d="M277.574,470.688v7.643h-2.052v-7.079Z" transform="translate(-241.315 -470.279)"/><g transform="translate(39.252)"><path class="q" d="M316.68,470.171l1.613-.836.666.444.866-.444,1.424.959-1.6.837-.677-.444-.867.444Z" transform="translate(-315.648 -469.125)"/><path class="q" d="M349.657,528.713l1.6-.837.677.444.867-.444,1.424.959-1.6.836-.687-.444-.858.445Z" transform="translate(-343.756 -519.023)"/><path class="q" d="M315,491.413v0a2.372,2.372,0,0,1-1.339-.339,2.769,2.769,0,0,1-1.478.343,2.389,2.389,0,0,1-1.927-.766,2.784,2.784,0,0,1-.566-1.844,2.461,2.461,0,0,1,.753-1.745,2.8,2.8,0,0,1,1.973-.77h.031c.055,0,.558,0,1.077-.038.925-.066,1.081-.184,1.1-.2a.076.076,0,0,0-.014.019l.421.105v.11h.008v3.739c0,.246.076.539.437.539h2.483l0-3.934,2.052-.378v4.312h1.517c.323,0,.358-.488.358-.7v-3.237l2.052-.378v3.615c0,.952-.8,1.543-2.092,1.543Zm-1.984-4.4a1.066,1.066,0,0,0-.936.518,2.617,2.617,0,0,0-.3,1.347c0,1.247.3,1.689.556,1.689a.579.579,0,0,0,.551-.347,1.21,1.21,0,0,0,.124-.455Z" transform="translate(-309.692 -483.375)"/><path class="q" d="M387.248,468.836l1.57-.922,1.391,1.054-1.57.907Z" transform="translate(-375.796 -467.914)"/><path class="q" d="M410.791,493.43c-.073,0-.354,0-.913-.043l-.031-.442c.845-.179,1.573-.422,1.866-1.491a4.279,4.279,0,0,1-.627.044c-1.322,0-2.177-.709-2.177-1.807a2.98,2.98,0,0,1,.826-2.12,3.584,3.584,0,0,1,2.078-1.005l0,0,.051-.006.145-.018h0a3.423,3.423,0,0,0,1.471-.385l0,0,.421.105v2.994a4.661,4.661,0,0,1-1.035,3.453A2.867,2.867,0,0,1,410.791,493.43Zm1.054-6.065a2.778,2.778,0,0,0-.883,2.263c0,.6.193,1.02.375,1.038.3-.009.508-.65.508-1.249Z" transform="translate(-394.26 -483.462)"/><path class="q" d="M521.84,470.172l1.6-.837.677.444.867-.444,1.425.96-1.612.835-.676-.443-.857.444Z" transform="translate(-490.515 -469.125)"/><path class="q" d="M456.956,478.573a3.5,3.5,0,0,1-1.239-.151,2.958,2.958,0,0,1-1.073.151h-5.575v-.013c-1.1-.091-1.773-.665-1.773-1.53v-5.265l2.052-.775v6.04c0,.7.158.7.262.7h4.742a1.781,1.781,0,0,0,.445-.06,7.7,7.7,0,0,1-1.1-1.888,4.77,4.77,0,0,0-.63-1l-.172-.2.227-.136a5.8,5.8,0,0,1,2.818-.813,3.491,3.491,0,0,1,1.967.515,1.782,1.782,0,0,1,.822,1.524c0,.888-.867,1.538-1.827,2.059h1.872l1.494.014c.155-.015.336-.152.336-.711v-3.237l2.052-.378v3.615c0,.952-.8,1.543-2.092,1.543Zm-2.064-3.816a7.57,7.57,0,0,1,.721,1.383,9.287,9.287,0,0,0,.422.877,1.846,1.846,0,0,0,.528-1.4,2.147,2.147,0,0,0-.165-.877.466.466,0,0,0-.445-.316A2.175,2.175,0,0,0,454.892,474.757Z" transform="translate(-426.978 -470.536)"/></g></g></g></svg>